<svg width="19" height="30" viewBox="0 0 19 30" fill="none" xmlns="http://www.w3.org/2000/svg">
<path d="M3.45515 29.8681C2.9789 29.6395 2.77464 29.0599 2.99869 28.5739C2.99869 28.5734 3.05395 28.4542 3.1561 28.2225C3.25775 27.9902 3.40476 27.6503 3.58092 27.2247C3.93327 26.3726 4.40445 25.1761 4.87429 23.8087C5.81668 21.0798 6.73949 17.6401 6.73296 15.0174C6.73296 14.7374 6.72319 14.4675 6.70236 14.2096C6.53615 12.0164 5.3021 9.26259 3.93078 6.93142C2.56494 4.59375 1.08614 2.65283 0.50641 1.91913C0.340524 1.70909 0.252716 1.60334 0.252259 1.60283C-0.0877453 1.19289 -0.0373973 0.579015 0.364762 0.232466C0.766881 -0.114549 1.3679 -0.0631631 1.7079 0.347247C1.72511 0.368506 3.30174 2.27111 4.94929 4.91153C6.59094 7.56244 8.33366 10.911 8.60166 14.0504C8.62677 14.3672 8.63866 14.6901 8.63866 15.0174C8.63226 18.0691 7.64239 21.6145 6.67285 24.4524C5.69981 27.2836 4.73214 29.3823 4.72329 29.4023C4.56089 29.7546 4.21823 29.9609 3.86055 29.9609C3.72452 29.9609 3.58636 29.931 3.45515 29.8681Z" fill="black"/>
<path d="M14.2657 29.4021C14.2573 29.3821 13.2891 27.2839 12.3161 24.4522C11.346 21.6143 10.3561 18.0689 10.3496 15.0177C10.3496 14.6889 10.362 14.3661 10.3873 14.0503C10.6555 10.9108 12.3985 7.56289 14.04 4.9119C15.688 2.27144 17.2642 0.368833 17.2814 0.347107L17.2819 0.347574C17.6215 -0.0628364 18.2225 -0.114138 18.6247 0.232284C19.0262 0.579299 19.077 1.19271 18.737 1.60316C18.737 1.60363 18.6487 1.70941 18.483 1.91941C18.3172 2.12886 18.0778 2.43714 17.7893 2.82489C17.2119 3.60047 16.4348 4.69473 15.6478 5.95634C14.0672 8.47078 12.4739 11.7 12.2868 14.21C12.2661 14.4687 12.2554 14.7387 12.2554 15.0177C12.251 17.31 12.9541 20.2355 13.7643 22.7541C14.5721 25.2771 15.4759 27.4104 15.8332 28.2222C15.9349 28.4545 15.99 28.5736 15.9907 28.5741C16.2147 29.0602 16.0103 29.6393 15.5338 29.8684C15.4026 29.9313 15.2649 29.9613 15.129 29.9613C14.7712 29.9612 14.428 29.7544 14.2657 29.4021Z" fill="black"/>
<path d="M8.6673 8.63976L6.10642 4.06572C5.88507 3.67016 5.96115 3.17378 6.28997 2.86631L8.8509 0.470298C9.21547 0.128756 9.77391 0.128756 10.1384 0.470298L12.6994 2.86631C13.0281 3.17331 13.1041 3.67016 12.8829 4.06572L10.322 8.63976C10.1531 8.9412 9.83507 9.12948 9.49474 9.12948C9.15461 9.12948 8.83622 8.94116 8.6673 8.63976ZM8.13888 3.77522L9.49448 6.19686L10.8506 3.77475L9.49474 2.50623L8.13888 3.77522Z" fill="black"/>
</svg>
